<?xml version="1.0" encoding="iso-8859-1"?>
<!-- Generator: Adobe Illustrator 18.0.0, SVG Export Plug-In . SVG Version: 6.00 Build 0)  -->
<!DOCTYPE svg PUBLIC "-//W3C//DTD SVG 1.1//EN" "http://www.w3.org/Graphics/SVG/1.1/DTD/svg11.dtd">
<svg version="1.1" id="Capa_1" xmlns="http://www.w3.org/2000/svg" xmlns:xlink="http://www.w3.org/1999/xlink" x="0px" y="0px"
	 viewBox="0 0 432.873 432.873" style="enable-background:new 0 0 432.873 432.873;" xml:space="preserve">
<path d="M421.54,273.851c6.259,0,11.333-5.074,11.333-11.333c0-2.302-0.686-4.443-1.866-6.232L306.217,40.755
	c-0.022-0.038-0.048-0.074-0.07-0.112c-0.065-0.109-0.133-0.215-0.202-0.322c-0.101-0.157-0.204-0.311-0.311-0.461
	c-0.069-0.096-0.138-0.192-0.21-0.287c-0.138-0.181-0.282-0.356-0.43-0.528c-0.05-0.058-0.096-0.118-0.147-0.175
	c-0.208-0.231-0.424-0.453-0.648-0.665c-0.013-0.012-0.023-0.025-0.036-0.037c-0.038-0.036-0.081-0.067-0.119-0.102
	c-0.179-0.163-0.362-0.321-0.551-0.472c-0.079-0.064-0.159-0.126-0.24-0.187c-0.172-0.131-0.349-0.255-0.528-0.375
	c-0.08-0.054-0.159-0.11-0.24-0.162c-0.249-0.158-0.502-0.308-0.762-0.446c-0.06-0.032-0.122-0.058-0.183-0.089
	c-0.208-0.106-0.42-0.207-0.635-0.3c-0.096-0.042-0.193-0.079-0.29-0.118c-0.19-0.076-0.382-0.147-0.577-0.213
	c-0.094-0.032-0.186-0.063-0.281-0.092c-0.228-0.071-0.459-0.134-0.693-0.19c-0.057-0.014-0.113-0.03-0.169-0.043
	c-0.301-0.068-0.605-0.125-0.913-0.167c-0.021-0.003-0.042-0.004-0.063-0.007c-0.275-0.037-0.551-0.063-0.83-0.079
	c-0.087-0.005-0.174-0.007-0.261-0.01c-0.21-0.007-0.42-0.01-0.631-0.006c-0.111,0.002-0.222,0.005-0.333,0.011
	c-0.071,0.003-0.142,0.002-0.213,0.007c-0.051,0.003-0.101,0.017-0.152,0.021c-0.951,0.076-1.893,0.272-2.808,0.59
	c-0.082,0.029-0.164,0.056-0.245,0.086c-0.432,0.161-0.857,0.347-1.272,0.563c-0.063,0.033-0.122,0.071-0.185,0.105
	c-0.353,0.193-0.697,0.407-1.034,0.64c-0.082,0.057-0.165,0.11-0.245,0.169c-0.049,0.036-0.1,0.066-0.149,0.103L4.488,253.486
	c-3.879,2.94-5.447,8.029-3.896,12.643c1.551,4.614,5.875,7.722,10.743,7.722h142.071c3.803,0,7.353-1.907,9.451-5.079
	l78.507-118.628l-44.575,108.05c-0.565,1.371-0.856,2.839-0.856,4.322v123.916c0,4.987,3.261,9.389,8.032,10.842
	c1.091,0.332,2.202,0.492,3.301,0.492c3.706,0,7.266-1.823,9.41-5.017l65.987-98.282l-50.757-20.594h64.584l0.016-0.024H421.52
	C421.525,273.85,421.532,273.85,421.54,273.851z"/>
<g>
</g>
<g>
</g>
<g>
</g>
<g>
</g>
<g>
</g>
<g>
</g>
<g>
</g>
<g>
</g>
<g>
</g>
<g>
</g>
<g>
</g>
<g>
</g>
<g>
</g>
<g>
</g>
<g>
</g>
</svg>
